G04 #@! TF.GenerationSoftware,KiCad,Pcbnew,(5.1.2)-1*
G04 #@! TF.CreationDate,2020-07-04T22:19:09+09:00*
G04 #@! TF.ProjectId,SPU0410LR5H,53505530-3431-4304-9c52-35482e6b6963,v1.1*
G04 #@! TF.SameCoordinates,Original*
G04 #@! TF.FileFunction,Soldermask,Bot*
G04 #@! TF.FilePolarity,Negative*
%FSLAX46Y46*%
G04 Gerber Fmt 4.6, Leading zero omitted, Abs format (unit mm)*
G04 Created by KiCad (PCBNEW (5.1.2)-1) date 2020-07-04 22:19:09*
%MOMM*%
%LPD*%
G04 APERTURE LIST*
%ADD10C,0.100000*%
G04 APERTURE END LIST*
D10*
G36*
X142870583Y-113011919D02*
G01*
X143051925Y-113066929D01*
X143219043Y-113156256D01*
X143365528Y-113276472D01*
X143485744Y-113422957D01*
X143575071Y-113590075D01*
X143630081Y-113771417D01*
X143648654Y-113960000D01*
X143630081Y-114148583D01*
X143575071Y-114329925D01*
X143485744Y-114497043D01*
X143365528Y-114643528D01*
X143219043Y-114763744D01*
X143051925Y-114853071D01*
X142870583Y-114908081D01*
X142729257Y-114922000D01*
X141110743Y-114922000D01*
X140969417Y-114908081D01*
X140788075Y-114853071D01*
X140620957Y-114763744D01*
X140474472Y-114643528D01*
X140354256Y-114497043D01*
X140264929Y-114329925D01*
X140209919Y-114148583D01*
X140191346Y-113960000D01*
X140209919Y-113771417D01*
X140264929Y-113590075D01*
X140354256Y-113422957D01*
X140474472Y-113276472D01*
X140620957Y-113156256D01*
X140788075Y-113066929D01*
X140969417Y-113011919D01*
X141110743Y-112998000D01*
X142729257Y-112998000D01*
X142870583Y-113011919D01*
X142870583Y-113011919D01*
G37*
G36*
X142870583Y-110471919D02*
G01*
X143051925Y-110526929D01*
X143219043Y-110616256D01*
X143365528Y-110736472D01*
X143485744Y-110882957D01*
X143575071Y-111050075D01*
X143630081Y-111231417D01*
X143648654Y-111420000D01*
X143630081Y-111608583D01*
X143575071Y-111789925D01*
X143485744Y-111957043D01*
X143365528Y-112103528D01*
X143219043Y-112223744D01*
X143051925Y-112313071D01*
X142870583Y-112368081D01*
X142729257Y-112382000D01*
X141110743Y-112382000D01*
X140969417Y-112368081D01*
X140788075Y-112313071D01*
X140620957Y-112223744D01*
X140474472Y-112103528D01*
X140354256Y-111957043D01*
X140264929Y-111789925D01*
X140209919Y-111608583D01*
X140191346Y-111420000D01*
X140209919Y-111231417D01*
X140264929Y-111050075D01*
X140354256Y-110882957D01*
X140474472Y-110736472D01*
X140620957Y-110616256D01*
X140788075Y-110526929D01*
X140969417Y-110471919D01*
X141110743Y-110458000D01*
X142729257Y-110458000D01*
X142870583Y-110471919D01*
X142870583Y-110471919D01*
G37*
G36*
X143644000Y-109842000D02*
G01*
X140196000Y-109842000D01*
X140196000Y-107918000D01*
X143644000Y-107918000D01*
X143644000Y-109842000D01*
X143644000Y-109842000D01*
G37*
M02*
