G04 #@! TF.GenerationSoftware,KiCad,Pcbnew,(5.1.2)-1*
G04 #@! TF.CreationDate,2020-07-04T22:19:09+09:00*
G04 #@! TF.ProjectId,SPU0410LR5H,53505530-3431-4304-9c52-35482e6b6963,v1.1*
G04 #@! TF.SameCoordinates,Original*
G04 #@! TF.FileFunction,Copper,L2,Bot*
G04 #@! TF.FilePolarity,Positive*
%FSLAX46Y46*%
G04 Gerber Fmt 4.6, Leading zero omitted, Abs format (unit mm)*
G04 Created by KiCad (PCBNEW (5.1.2)-1) date 2020-07-04 22:19:09*
%MOMM*%
%LPD*%
G04 APERTURE LIST*
%ADD10R,3.048000X1.524000*%
%ADD11O,3.048000X1.524000*%
%ADD12C,1.224000*%
%ADD13C,0.800000*%
%ADD14C,0.300000*%
%ADD15C,0.254000*%
G04 APERTURE END LIST*
D10*
X141920000Y-108880000D03*
D11*
X141920000Y-111420000D03*
X141920000Y-113960000D03*
D12*
X150000000Y-111500000D03*
D13*
X146650000Y-107990000D03*
X154000000Y-108000000D03*
X158800000Y-113000000D03*
X149100000Y-116200000D03*
X145168600Y-108195800D03*
X145119600Y-112484700D03*
D14*
X143794300Y-113960000D02*
X147540000Y-113960000D01*
X147540000Y-113960000D02*
X150000000Y-111500000D01*
X141920000Y-113960000D02*
X143794300Y-113960000D01*
X150000000Y-111340000D02*
X150000000Y-111500000D01*
X146650000Y-107990000D02*
X150000000Y-111340000D01*
X145168600Y-108195800D02*
X145168600Y-110045700D01*
X145168600Y-110045700D02*
X143794300Y-111420000D01*
X143794300Y-111420000D02*
X144859000Y-112484700D01*
X144859000Y-112484700D02*
X145119600Y-112484700D01*
X141920000Y-111420000D02*
X143794300Y-111420000D01*
D15*
G36*
X156139017Y-104841637D02*
G01*
X155841637Y-105139017D01*
X155607988Y-105488698D01*
X155447047Y-105877244D01*
X155365000Y-106289721D01*
X155365000Y-106710279D01*
X155447047Y-107122756D01*
X155607988Y-107511302D01*
X155841637Y-107860983D01*
X156139017Y-108158363D01*
X156488698Y-108392012D01*
X156877244Y-108552953D01*
X157289721Y-108635000D01*
X157710279Y-108635000D01*
X158122756Y-108552953D01*
X158511302Y-108392012D01*
X158860983Y-108158363D01*
X159158363Y-107860983D01*
X159290000Y-107663974D01*
X159290001Y-115336027D01*
X159158363Y-115139017D01*
X158860983Y-114841637D01*
X158511302Y-114607988D01*
X158122756Y-114447047D01*
X157710279Y-114365000D01*
X157289721Y-114365000D01*
X156877244Y-114447047D01*
X156488698Y-114607988D01*
X156139017Y-114841637D01*
X155841637Y-115139017D01*
X155607988Y-115488698D01*
X155447047Y-115877244D01*
X155365000Y-116289721D01*
X155365000Y-116710279D01*
X155447047Y-117122756D01*
X155607988Y-117511302D01*
X155841637Y-117860983D01*
X156139017Y-118158363D01*
X156336026Y-118290000D01*
X140710000Y-118290000D01*
X140710000Y-115284745D01*
X140760899Y-115305381D01*
X141031000Y-115357000D01*
X141793000Y-115357000D01*
X141793000Y-114087000D01*
X142047000Y-114087000D01*
X142047000Y-115357000D01*
X142809000Y-115357000D01*
X143079101Y-115305381D01*
X143333942Y-115202059D01*
X143563729Y-115051006D01*
X143759632Y-114858026D01*
X143914122Y-114630535D01*
X144021262Y-114377276D01*
X144036220Y-114303070D01*
X143913720Y-114087000D01*
X142047000Y-114087000D01*
X141793000Y-114087000D01*
X141773000Y-114087000D01*
X141773000Y-113833000D01*
X141793000Y-113833000D01*
X141793000Y-113813000D01*
X142047000Y-113813000D01*
X142047000Y-113833000D01*
X143913720Y-113833000D01*
X144036220Y-113616930D01*
X144021262Y-113542724D01*
X143914122Y-113289465D01*
X143759632Y-113061974D01*
X143563729Y-112868994D01*
X143333942Y-112717941D01*
X143267587Y-112691038D01*
X143461887Y-112587183D01*
X143674608Y-112412608D01*
X143675574Y-112411431D01*
X144176442Y-112912300D01*
X144202395Y-112974956D01*
X144315663Y-113144474D01*
X144459826Y-113288637D01*
X144629344Y-113401905D01*
X144817702Y-113479926D01*
X145017661Y-113519700D01*
X145221539Y-113519700D01*
X145421498Y-113479926D01*
X145609856Y-113401905D01*
X145779374Y-113288637D01*
X145923537Y-113144474D01*
X146036805Y-112974956D01*
X146114826Y-112786598D01*
X146154600Y-112586639D01*
X146154600Y-112382761D01*
X146149745Y-112358349D01*
X149321256Y-112358349D01*
X149370024Y-112583154D01*
X149593442Y-112685244D01*
X149832484Y-112741786D01*
X150077963Y-112750606D01*
X150320446Y-112711367D01*
X150550615Y-112625575D01*
X150629976Y-112583154D01*
X150678744Y-112358349D01*
X150000000Y-111679605D01*
X149321256Y-112358349D01*
X146149745Y-112358349D01*
X146114826Y-112182802D01*
X146036805Y-111994444D01*
X145923537Y-111824926D01*
X145779374Y-111680763D01*
X145625523Y-111577963D01*
X148749394Y-111577963D01*
X148788633Y-111820446D01*
X148874425Y-112050615D01*
X148916846Y-112129976D01*
X149141651Y-112178744D01*
X149820395Y-111500000D01*
X150179605Y-111500000D01*
X150858349Y-112178744D01*
X151083154Y-112129976D01*
X151185244Y-111906558D01*
X151241786Y-111667516D01*
X151250606Y-111422037D01*
X151211367Y-111179554D01*
X151125575Y-110949385D01*
X151083154Y-110870024D01*
X150858349Y-110821256D01*
X150179605Y-111500000D01*
X149820395Y-111500000D01*
X149141651Y-110821256D01*
X148916846Y-110870024D01*
X148814756Y-111093442D01*
X148758214Y-111332484D01*
X148749394Y-111577963D01*
X145625523Y-111577963D01*
X145609856Y-111567495D01*
X145421498Y-111489474D01*
X145221539Y-111449700D01*
X145017661Y-111449700D01*
X144948012Y-111463554D01*
X144904457Y-111420000D01*
X145682806Y-110641651D01*
X149321256Y-110641651D01*
X150000000Y-111320395D01*
X150678744Y-110641651D01*
X150629976Y-110416846D01*
X150406558Y-110314756D01*
X150167516Y-110258214D01*
X149922037Y-110249394D01*
X149679554Y-110288633D01*
X149449385Y-110374425D01*
X149370024Y-110416846D01*
X149321256Y-110641651D01*
X145682806Y-110641651D01*
X145696410Y-110628047D01*
X145726364Y-110603464D01*
X145824462Y-110483933D01*
X145897354Y-110347560D01*
X145907305Y-110314756D01*
X145942242Y-110199587D01*
X145952721Y-110093185D01*
X145953600Y-110084261D01*
X145953600Y-110084256D01*
X145957397Y-110045700D01*
X145953600Y-110007144D01*
X145953600Y-108874511D01*
X145972537Y-108855574D01*
X146085805Y-108686056D01*
X146163826Y-108497698D01*
X146203600Y-108297739D01*
X146203600Y-108093861D01*
X146163826Y-107893902D01*
X146085805Y-107705544D01*
X145972537Y-107536026D01*
X145828374Y-107391863D01*
X145658856Y-107278595D01*
X145470498Y-107200574D01*
X145270539Y-107160800D01*
X145066661Y-107160800D01*
X144866702Y-107200574D01*
X144678344Y-107278595D01*
X144508826Y-107391863D01*
X144364663Y-107536026D01*
X144251395Y-107705544D01*
X144173374Y-107893902D01*
X144133600Y-108093861D01*
X144133600Y-108297739D01*
X144173374Y-108497698D01*
X144251395Y-108686056D01*
X144364663Y-108855574D01*
X144383600Y-108874511D01*
X144383601Y-109720542D01*
X143675574Y-110428569D01*
X143674608Y-110427392D01*
X143489622Y-110275579D01*
X143568482Y-110267812D01*
X143688180Y-110231502D01*
X143798494Y-110172537D01*
X143895185Y-110093185D01*
X143974537Y-109996494D01*
X144033502Y-109886180D01*
X144069812Y-109766482D01*
X144082072Y-109642000D01*
X144082072Y-108118000D01*
X144069812Y-107993518D01*
X144033502Y-107873820D01*
X143974537Y-107763506D01*
X143895185Y-107666815D01*
X143798494Y-107587463D01*
X143688180Y-107528498D01*
X143568482Y-107492188D01*
X143444000Y-107479928D01*
X140710000Y-107479928D01*
X140710000Y-104710000D01*
X156336026Y-104710000D01*
X156139017Y-104841637D01*
X156139017Y-104841637D01*
G37*
X156139017Y-104841637D02*
X155841637Y-105139017D01*
X155607988Y-105488698D01*
X155447047Y-105877244D01*
X155365000Y-106289721D01*
X155365000Y-106710279D01*
X155447047Y-107122756D01*
X155607988Y-107511302D01*
X155841637Y-107860983D01*
X156139017Y-108158363D01*
X156488698Y-108392012D01*
X156877244Y-108552953D01*
X157289721Y-108635000D01*
X157710279Y-108635000D01*
X158122756Y-108552953D01*
X158511302Y-108392012D01*
X158860983Y-108158363D01*
X159158363Y-107860983D01*
X159290000Y-107663974D01*
X159290001Y-115336027D01*
X159158363Y-115139017D01*
X158860983Y-114841637D01*
X158511302Y-114607988D01*
X158122756Y-114447047D01*
X157710279Y-114365000D01*
X157289721Y-114365000D01*
X156877244Y-114447047D01*
X156488698Y-114607988D01*
X156139017Y-114841637D01*
X155841637Y-115139017D01*
X155607988Y-115488698D01*
X155447047Y-115877244D01*
X155365000Y-116289721D01*
X155365000Y-116710279D01*
X155447047Y-117122756D01*
X155607988Y-117511302D01*
X155841637Y-117860983D01*
X156139017Y-118158363D01*
X156336026Y-118290000D01*
X140710000Y-118290000D01*
X140710000Y-115284745D01*
X140760899Y-115305381D01*
X141031000Y-115357000D01*
X141793000Y-115357000D01*
X141793000Y-114087000D01*
X142047000Y-114087000D01*
X142047000Y-115357000D01*
X142809000Y-115357000D01*
X143079101Y-115305381D01*
X143333942Y-115202059D01*
X143563729Y-115051006D01*
X143759632Y-114858026D01*
X143914122Y-114630535D01*
X144021262Y-114377276D01*
X144036220Y-114303070D01*
X143913720Y-114087000D01*
X142047000Y-114087000D01*
X141793000Y-114087000D01*
X141773000Y-114087000D01*
X141773000Y-113833000D01*
X141793000Y-113833000D01*
X141793000Y-113813000D01*
X142047000Y-113813000D01*
X142047000Y-113833000D01*
X143913720Y-113833000D01*
X144036220Y-113616930D01*
X144021262Y-113542724D01*
X143914122Y-113289465D01*
X143759632Y-113061974D01*
X143563729Y-112868994D01*
X143333942Y-112717941D01*
X143267587Y-112691038D01*
X143461887Y-112587183D01*
X143674608Y-112412608D01*
X143675574Y-112411431D01*
X144176442Y-112912300D01*
X144202395Y-112974956D01*
X144315663Y-113144474D01*
X144459826Y-113288637D01*
X144629344Y-113401905D01*
X144817702Y-113479926D01*
X145017661Y-113519700D01*
X145221539Y-113519700D01*
X145421498Y-113479926D01*
X145609856Y-113401905D01*
X145779374Y-113288637D01*
X145923537Y-113144474D01*
X146036805Y-112974956D01*
X146114826Y-112786598D01*
X146154600Y-112586639D01*
X146154600Y-112382761D01*
X146149745Y-112358349D01*
X149321256Y-112358349D01*
X149370024Y-112583154D01*
X149593442Y-112685244D01*
X149832484Y-112741786D01*
X150077963Y-112750606D01*
X150320446Y-112711367D01*
X150550615Y-112625575D01*
X150629976Y-112583154D01*
X150678744Y-112358349D01*
X150000000Y-111679605D01*
X149321256Y-112358349D01*
X146149745Y-112358349D01*
X146114826Y-112182802D01*
X146036805Y-111994444D01*
X145923537Y-111824926D01*
X145779374Y-111680763D01*
X145625523Y-111577963D01*
X148749394Y-111577963D01*
X148788633Y-111820446D01*
X148874425Y-112050615D01*
X148916846Y-112129976D01*
X149141651Y-112178744D01*
X149820395Y-111500000D01*
X150179605Y-111500000D01*
X150858349Y-112178744D01*
X151083154Y-112129976D01*
X151185244Y-111906558D01*
X151241786Y-111667516D01*
X151250606Y-111422037D01*
X151211367Y-111179554D01*
X151125575Y-110949385D01*
X151083154Y-110870024D01*
X150858349Y-110821256D01*
X150179605Y-111500000D01*
X149820395Y-111500000D01*
X149141651Y-110821256D01*
X148916846Y-110870024D01*
X148814756Y-111093442D01*
X148758214Y-111332484D01*
X148749394Y-111577963D01*
X145625523Y-111577963D01*
X145609856Y-111567495D01*
X145421498Y-111489474D01*
X145221539Y-111449700D01*
X145017661Y-111449700D01*
X144948012Y-111463554D01*
X144904457Y-111420000D01*
X145682806Y-110641651D01*
X149321256Y-110641651D01*
X150000000Y-111320395D01*
X150678744Y-110641651D01*
X150629976Y-110416846D01*
X150406558Y-110314756D01*
X150167516Y-110258214D01*
X149922037Y-110249394D01*
X149679554Y-110288633D01*
X149449385Y-110374425D01*
X149370024Y-110416846D01*
X149321256Y-110641651D01*
X145682806Y-110641651D01*
X145696410Y-110628047D01*
X145726364Y-110603464D01*
X145824462Y-110483933D01*
X145897354Y-110347560D01*
X145907305Y-110314756D01*
X145942242Y-110199587D01*
X145952721Y-110093185D01*
X145953600Y-110084261D01*
X145953600Y-110084256D01*
X145957397Y-110045700D01*
X145953600Y-110007144D01*
X145953600Y-108874511D01*
X145972537Y-108855574D01*
X146085805Y-108686056D01*
X146163826Y-108497698D01*
X146203600Y-108297739D01*
X146203600Y-108093861D01*
X146163826Y-107893902D01*
X146085805Y-107705544D01*
X145972537Y-107536026D01*
X145828374Y-107391863D01*
X145658856Y-107278595D01*
X145470498Y-107200574D01*
X145270539Y-107160800D01*
X145066661Y-107160800D01*
X144866702Y-107200574D01*
X144678344Y-107278595D01*
X144508826Y-107391863D01*
X144364663Y-107536026D01*
X144251395Y-107705544D01*
X144173374Y-107893902D01*
X144133600Y-108093861D01*
X144133600Y-108297739D01*
X144173374Y-108497698D01*
X144251395Y-108686056D01*
X144364663Y-108855574D01*
X144383600Y-108874511D01*
X144383601Y-109720542D01*
X143675574Y-110428569D01*
X143674608Y-110427392D01*
X143489622Y-110275579D01*
X143568482Y-110267812D01*
X143688180Y-110231502D01*
X143798494Y-110172537D01*
X143895185Y-110093185D01*
X143974537Y-109996494D01*
X144033502Y-109886180D01*
X144069812Y-109766482D01*
X144082072Y-109642000D01*
X144082072Y-108118000D01*
X144069812Y-107993518D01*
X144033502Y-107873820D01*
X143974537Y-107763506D01*
X143895185Y-107666815D01*
X143798494Y-107587463D01*
X143688180Y-107528498D01*
X143568482Y-107492188D01*
X143444000Y-107479928D01*
X140710000Y-107479928D01*
X140710000Y-104710000D01*
X156336026Y-104710000D01*
X156139017Y-104841637D01*
M02*
