G04 #@! TF.GenerationSoftware,KiCad,Pcbnew,(5.1.2)-1*
G04 #@! TF.CreationDate,2020-07-04T22:19:09+09:00*
G04 #@! TF.ProjectId,SPU0410LR5H,53505530-3431-4304-9c52-35482e6b6963,v1.1*
G04 #@! TF.SameCoordinates,Original*
G04 #@! TF.FileFunction,Copper,L1,Top*
G04 #@! TF.FilePolarity,Positive*
%FSLAX46Y46*%
G04 Gerber Fmt 4.6, Leading zero omitted, Abs format (unit mm)*
G04 Created by KiCad (PCBNEW (5.1.2)-1) date 2020-07-04 22:19:09*
%MOMM*%
%LPD*%
G04 APERTURE LIST*
%ADD10R,1.399540X1.297940*%
%ADD11R,1.498600X2.298700*%
%ADD12R,3.048000X1.524000*%
%ADD13O,3.048000X1.524000*%
%ADD14C,0.562000*%
%ADD15C,0.723000*%
%ADD16C,1.224000*%
%ADD17C,0.612000*%
%ADD18R,1.049020X1.079500*%
%ADD19R,1.800000X1.600000*%
%ADD20R,0.400000X0.750000*%
%ADD21C,0.800000*%
%ADD22C,0.300000*%
%ADD23C,0.254000*%
G04 APERTURE END LIST*
D10*
X148799780Y-107588080D03*
D11*
X144951680Y-106440000D03*
D10*
X148799780Y-105291920D03*
D12*
X141920000Y-108880000D03*
D13*
X141920000Y-111420000D03*
X141920000Y-113960000D03*
D14*
X149366000Y-112515000D03*
X149366000Y-110485000D03*
D15*
X152103000Y-112466000D03*
X152103000Y-110534000D03*
D16*
X150000000Y-111500000D03*
D17*
X152103000Y-111500000D03*
D18*
X150690240Y-107990000D03*
X152437760Y-107990000D03*
D19*
X154760000Y-112860000D03*
X154760000Y-110060000D03*
D18*
X145600240Y-114990000D03*
X147347760Y-114990000D03*
X150706240Y-115030000D03*
X152453760Y-115030000D03*
X150690240Y-116850000D03*
X152437760Y-116850000D03*
X150692240Y-106120000D03*
X152439760Y-106120000D03*
X147379760Y-109530000D03*
X145632240Y-109530000D03*
D20*
X147150000Y-111310000D03*
X145850000Y-111310000D03*
X146500000Y-111310000D03*
X145850000Y-113210000D03*
X147150000Y-113210000D03*
D21*
X146650000Y-107990000D03*
X154000000Y-108000000D03*
X158800000Y-113000000D03*
X149100000Y-116200000D03*
X145168600Y-108195800D03*
X145119600Y-112484700D03*
D22*
X147150000Y-113810200D02*
X147150000Y-113935300D01*
X147150000Y-113210000D02*
X147150000Y-113810200D01*
X152453800Y-112860000D02*
X152103000Y-112509200D01*
X152103000Y-112509200D02*
X152103000Y-112466000D01*
X154760000Y-112860000D02*
X152453800Y-112860000D01*
X142270000Y-108880000D02*
X141920000Y-108880000D01*
X144293700Y-110903700D02*
X142270000Y-108880000D01*
X144293700Y-113093700D02*
X144293700Y-110903700D01*
X145290000Y-114090000D02*
X144293700Y-113093700D01*
X147150000Y-113935300D02*
X146995300Y-114090000D01*
X146995300Y-114090000D02*
X145290000Y-114090000D01*
X152453800Y-114139900D02*
X152453800Y-112860000D01*
X152490000Y-115030000D02*
X152453800Y-115030000D01*
X153510000Y-116050000D02*
X152490000Y-115030000D01*
X153510000Y-117760000D02*
X153510000Y-116050000D01*
X152453800Y-115030000D02*
X152453800Y-114139900D01*
X147314700Y-114100000D02*
X147347800Y-114100000D01*
X147150000Y-113935300D02*
X147314700Y-114100000D01*
X147347800Y-114100000D02*
X147347800Y-116507800D01*
X147347800Y-116507800D02*
X149290000Y-118450000D01*
X149290000Y-118450000D02*
X152820000Y-118450000D01*
X152820000Y-118450000D02*
X153510000Y-117760000D01*
X150000000Y-111500000D02*
X150000000Y-111881000D01*
X150000000Y-111881000D02*
X149366000Y-112515000D01*
X152103000Y-111500000D02*
X150000000Y-111500000D01*
X145600200Y-114990000D02*
X144725400Y-114990000D01*
X141920000Y-113960000D02*
X143794300Y-113960000D01*
X143794300Y-113960000D02*
X144725400Y-114891100D01*
X144725400Y-114891100D02*
X144725400Y-114990000D01*
X154760000Y-110060000D02*
X154760000Y-111210300D01*
X154760000Y-111210300D02*
X154470300Y-111500000D01*
X154470300Y-111500000D02*
X152103000Y-111500000D01*
X150000000Y-111500000D02*
X150000000Y-111119000D01*
X150000000Y-111119000D02*
X149366000Y-110485000D01*
X147570000Y-112210000D02*
X146500000Y-112210000D01*
X147874600Y-112514600D02*
X147570000Y-112210000D01*
X152437800Y-116850000D02*
X151387800Y-117900000D01*
X146500000Y-112210000D02*
X146500000Y-111310000D01*
X149860000Y-117900000D02*
X148384600Y-116424600D01*
X148384600Y-116424600D02*
X148384600Y-114400000D01*
X148384600Y-114400000D02*
X148384600Y-114224600D01*
X151387800Y-117900000D02*
X149860000Y-117900000D01*
X148384600Y-114224600D02*
X147874600Y-113714600D01*
X147874600Y-113714600D02*
X147874600Y-112514600D01*
X145792300Y-109690060D02*
X145632240Y-109530000D01*
X145792300Y-109912300D02*
X145792300Y-109690060D01*
X145632240Y-109514760D02*
X145632240Y-109530000D01*
X146505249Y-108134751D02*
X146650000Y-107990000D01*
X145632240Y-109530000D02*
X145632240Y-109545240D01*
X146500000Y-110397760D02*
X145632240Y-109530000D01*
X146500000Y-111310000D02*
X146500000Y-110397760D01*
X145632240Y-109207760D02*
X145632240Y-109530000D01*
X146650000Y-107990000D02*
X146650000Y-108190000D01*
X146650000Y-108190000D02*
X145632240Y-109207760D01*
X158800000Y-113000000D02*
X155200000Y-115200000D01*
X157400000Y-113000000D02*
X155200000Y-115200000D01*
X157400000Y-109800000D02*
X157400000Y-113000000D01*
X155600000Y-108000000D02*
X157400000Y-109800000D01*
X154000000Y-108000000D02*
X155600000Y-108000000D01*
X154760000Y-108760000D02*
X154000000Y-108000000D01*
X154760000Y-108760000D02*
X154760000Y-110060000D01*
X148384600Y-114400000D02*
X148384600Y-115484600D01*
X148384600Y-115484600D02*
X149100000Y-116200000D01*
X150690200Y-114838076D02*
X150690200Y-116850000D01*
X150706240Y-115014760D02*
X150706240Y-115030000D01*
X148290000Y-111310000D02*
X148400000Y-111420000D01*
X147150000Y-111310000D02*
X148290000Y-111310000D01*
X148400000Y-111420000D02*
X148400000Y-113342880D01*
X148400000Y-113342880D02*
X149070000Y-114012880D01*
X149070000Y-114012880D02*
X149704360Y-114012880D01*
X149704360Y-114012880D02*
X150706240Y-115014760D01*
X147379800Y-110420100D02*
X147379800Y-109530000D01*
X147150000Y-111310000D02*
X147150000Y-110649900D01*
X147150000Y-110649900D02*
X147379800Y-110420100D01*
X150690200Y-107990000D02*
X150690200Y-109121200D01*
X150690200Y-109121200D02*
X152103000Y-110534000D01*
X152437800Y-107990000D02*
X152437800Y-107100000D01*
X152439800Y-106120000D02*
X152439800Y-107098000D01*
X152439800Y-107098000D02*
X152437800Y-107100000D01*
X145168600Y-108195800D02*
X145168600Y-107588100D01*
X145168600Y-107588100D02*
X145168600Y-107406700D01*
X145168600Y-107406700D02*
X144951700Y-107189800D01*
X145850000Y-112484700D02*
X145119600Y-112484700D01*
X148799800Y-107588100D02*
X147749700Y-107588100D01*
X144951700Y-106440000D02*
X144951700Y-107189800D01*
X145850000Y-113210000D02*
X145850000Y-112484700D01*
X146340000Y-106440000D02*
X144951680Y-106440000D01*
X148799780Y-107588080D02*
X147488080Y-107588080D01*
X147488080Y-107588080D02*
X146340000Y-106440000D01*
X149849900Y-105291900D02*
X150678000Y-106120000D01*
X150678000Y-106120000D02*
X150692200Y-106120000D01*
X147749700Y-105291900D02*
X149849900Y-105291900D01*
X147157800Y-104700000D02*
X147749700Y-105291900D01*
X143860000Y-104700000D02*
X147157800Y-104700000D01*
X145580000Y-111310000D02*
X144360000Y-110090000D01*
X144360000Y-110090000D02*
X144360000Y-108403998D01*
X144360000Y-108403998D02*
X143640000Y-107683998D01*
X145850000Y-111310000D02*
X145580000Y-111310000D01*
X143640000Y-107683998D02*
X143640000Y-104920000D01*
X143640000Y-104920000D02*
X143860000Y-104700000D01*
D23*
G36*
X156139017Y-104841637D02*
G01*
X155841637Y-105139017D01*
X155607988Y-105488698D01*
X155447047Y-105877244D01*
X155365000Y-106289721D01*
X155365000Y-106710279D01*
X155447047Y-107122756D01*
X155607988Y-107511302D01*
X155841637Y-107860983D01*
X156139017Y-108158363D01*
X156488698Y-108392012D01*
X156877244Y-108552953D01*
X157289721Y-108635000D01*
X157710279Y-108635000D01*
X158122756Y-108552953D01*
X158511302Y-108392012D01*
X158860983Y-108158363D01*
X159158363Y-107860983D01*
X159290000Y-107663974D01*
X159290001Y-115336027D01*
X159158363Y-115139017D01*
X158860983Y-114841637D01*
X158511302Y-114607988D01*
X158122756Y-114447047D01*
X157710279Y-114365000D01*
X157289721Y-114365000D01*
X156877244Y-114447047D01*
X156488698Y-114607988D01*
X156139017Y-114841637D01*
X155841637Y-115139017D01*
X155607988Y-115488698D01*
X155447047Y-115877244D01*
X155365000Y-116289721D01*
X155365000Y-116710279D01*
X155447047Y-117122756D01*
X155607988Y-117511302D01*
X155841637Y-117860983D01*
X156139017Y-118158363D01*
X156336026Y-118290000D01*
X154090550Y-118290000D01*
X154165862Y-118198233D01*
X154238754Y-118061860D01*
X154283641Y-117913887D01*
X154295000Y-117798561D01*
X154295000Y-117798554D01*
X154298797Y-117760001D01*
X154295000Y-117721448D01*
X154295000Y-116088556D01*
X154298797Y-116050000D01*
X154295000Y-116011444D01*
X154295000Y-116011439D01*
X154288952Y-115950036D01*
X154283642Y-115896113D01*
X154238754Y-115748140D01*
X154204705Y-115684438D01*
X154165862Y-115611767D01*
X154067764Y-115492236D01*
X154037810Y-115467653D01*
X153616342Y-115046185D01*
X153616342Y-114490250D01*
X153604082Y-114365768D01*
X153567772Y-114246070D01*
X153551121Y-114214919D01*
X153615820Y-114249502D01*
X153735518Y-114285812D01*
X153860000Y-114298072D01*
X155660000Y-114298072D01*
X155784482Y-114285812D01*
X155904180Y-114249502D01*
X156014494Y-114190537D01*
X156111185Y-114111185D01*
X156190537Y-114014494D01*
X156249502Y-113904180D01*
X156285812Y-113784482D01*
X156298072Y-113660000D01*
X156298072Y-112060000D01*
X156285812Y-111935518D01*
X156249502Y-111815820D01*
X156190537Y-111705506D01*
X156111185Y-111608815D01*
X156014494Y-111529463D01*
X155904180Y-111470498D01*
X155869573Y-111460000D01*
X155904180Y-111449502D01*
X156014494Y-111390537D01*
X156111185Y-111311185D01*
X156190537Y-111214494D01*
X156249502Y-111104180D01*
X156285812Y-110984482D01*
X156298072Y-110860000D01*
X156295000Y-110345750D01*
X156136250Y-110187000D01*
X154887000Y-110187000D01*
X154887000Y-110207000D01*
X154633000Y-110207000D01*
X154633000Y-110187000D01*
X153383750Y-110187000D01*
X153225000Y-110345750D01*
X153221928Y-110860000D01*
X153234188Y-110984482D01*
X153270498Y-111104180D01*
X153329463Y-111214494D01*
X153408815Y-111311185D01*
X153505506Y-111390537D01*
X153615820Y-111449502D01*
X153650427Y-111460000D01*
X153615820Y-111470498D01*
X153505506Y-111529463D01*
X153408815Y-111608815D01*
X153329463Y-111705506D01*
X153270498Y-111815820D01*
X153234188Y-111935518D01*
X153221928Y-112060000D01*
X153221928Y-112075000D01*
X153019646Y-112075000D01*
X152986087Y-111993980D01*
X152943252Y-111929873D01*
X153007086Y-111776943D01*
X153043743Y-111595243D01*
X153044248Y-111409883D01*
X153008581Y-111227987D01*
X152943528Y-111069714D01*
X152986087Y-111006020D01*
X153061205Y-110824668D01*
X153099500Y-110632147D01*
X153099500Y-110435853D01*
X153061205Y-110243332D01*
X152986087Y-110061980D01*
X152877032Y-109898768D01*
X152738232Y-109759968D01*
X152575020Y-109650913D01*
X152393668Y-109575795D01*
X152220509Y-109541351D01*
X151839740Y-109160582D01*
X151913250Y-109167822D01*
X152962270Y-109167822D01*
X153086752Y-109155562D01*
X153206450Y-109119252D01*
X153245445Y-109098408D01*
X153234188Y-109135518D01*
X153221928Y-109260000D01*
X153225000Y-109774250D01*
X153383750Y-109933000D01*
X154633000Y-109933000D01*
X154633000Y-108783750D01*
X154887000Y-108783750D01*
X154887000Y-109933000D01*
X156136250Y-109933000D01*
X156295000Y-109774250D01*
X156298072Y-109260000D01*
X156285812Y-109135518D01*
X156249502Y-109015820D01*
X156190537Y-108905506D01*
X156111185Y-108808815D01*
X156014494Y-108729463D01*
X155904180Y-108670498D01*
X155784482Y-108634188D01*
X155660000Y-108621928D01*
X155045750Y-108625000D01*
X154887000Y-108783750D01*
X154633000Y-108783750D01*
X154474250Y-108625000D01*
X153860000Y-108621928D01*
X153735518Y-108634188D01*
X153615820Y-108670498D01*
X153576825Y-108691342D01*
X153588082Y-108654232D01*
X153600342Y-108529750D01*
X153600342Y-107450250D01*
X153588082Y-107325768D01*
X153551772Y-107206070D01*
X153492807Y-107095756D01*
X153460360Y-107056219D01*
X153494807Y-107014244D01*
X153553772Y-106903930D01*
X153590082Y-106784232D01*
X153602342Y-106659750D01*
X153602342Y-105580250D01*
X153590082Y-105455768D01*
X153553772Y-105336070D01*
X153494807Y-105225756D01*
X153415455Y-105129065D01*
X153318764Y-105049713D01*
X153208450Y-104990748D01*
X153088752Y-104954438D01*
X152964270Y-104942178D01*
X151915250Y-104942178D01*
X151790768Y-104954438D01*
X151671070Y-104990748D01*
X151566000Y-105046910D01*
X151460930Y-104990748D01*
X151341232Y-104954438D01*
X151216750Y-104942178D01*
X150610335Y-104942178D01*
X150432247Y-104764090D01*
X150407664Y-104734136D01*
X150378255Y-104710000D01*
X156336026Y-104710000D01*
X156139017Y-104841637D01*
X156139017Y-104841637D01*
G37*
X156139017Y-104841637D02*
X155841637Y-105139017D01*
X155607988Y-105488698D01*
X155447047Y-105877244D01*
X155365000Y-106289721D01*
X155365000Y-106710279D01*
X155447047Y-107122756D01*
X155607988Y-107511302D01*
X155841637Y-107860983D01*
X156139017Y-108158363D01*
X156488698Y-108392012D01*
X156877244Y-108552953D01*
X157289721Y-108635000D01*
X157710279Y-108635000D01*
X158122756Y-108552953D01*
X158511302Y-108392012D01*
X158860983Y-108158363D01*
X159158363Y-107860983D01*
X159290000Y-107663974D01*
X159290001Y-115336027D01*
X159158363Y-115139017D01*
X158860983Y-114841637D01*
X158511302Y-114607988D01*
X158122756Y-114447047D01*
X157710279Y-114365000D01*
X157289721Y-114365000D01*
X156877244Y-114447047D01*
X156488698Y-114607988D01*
X156139017Y-114841637D01*
X155841637Y-115139017D01*
X155607988Y-115488698D01*
X155447047Y-115877244D01*
X155365000Y-116289721D01*
X155365000Y-116710279D01*
X155447047Y-117122756D01*
X155607988Y-117511302D01*
X155841637Y-117860983D01*
X156139017Y-118158363D01*
X156336026Y-118290000D01*
X154090550Y-118290000D01*
X154165862Y-118198233D01*
X154238754Y-118061860D01*
X154283641Y-117913887D01*
X154295000Y-117798561D01*
X154295000Y-117798554D01*
X154298797Y-117760001D01*
X154295000Y-117721448D01*
X154295000Y-116088556D01*
X154298797Y-116050000D01*
X154295000Y-116011444D01*
X154295000Y-116011439D01*
X154288952Y-115950036D01*
X154283642Y-115896113D01*
X154238754Y-115748140D01*
X154204705Y-115684438D01*
X154165862Y-115611767D01*
X154067764Y-115492236D01*
X154037810Y-115467653D01*
X153616342Y-115046185D01*
X153616342Y-114490250D01*
X153604082Y-114365768D01*
X153567772Y-114246070D01*
X153551121Y-114214919D01*
X153615820Y-114249502D01*
X153735518Y-114285812D01*
X153860000Y-114298072D01*
X155660000Y-114298072D01*
X155784482Y-114285812D01*
X155904180Y-114249502D01*
X156014494Y-114190537D01*
X156111185Y-114111185D01*
X156190537Y-114014494D01*
X156249502Y-113904180D01*
X156285812Y-113784482D01*
X156298072Y-113660000D01*
X156298072Y-112060000D01*
X156285812Y-111935518D01*
X156249502Y-111815820D01*
X156190537Y-111705506D01*
X156111185Y-111608815D01*
X156014494Y-111529463D01*
X155904180Y-111470498D01*
X155869573Y-111460000D01*
X155904180Y-111449502D01*
X156014494Y-111390537D01*
X156111185Y-111311185D01*
X156190537Y-111214494D01*
X156249502Y-111104180D01*
X156285812Y-110984482D01*
X156298072Y-110860000D01*
X156295000Y-110345750D01*
X156136250Y-110187000D01*
X154887000Y-110187000D01*
X154887000Y-110207000D01*
X154633000Y-110207000D01*
X154633000Y-110187000D01*
X153383750Y-110187000D01*
X153225000Y-110345750D01*
X153221928Y-110860000D01*
X153234188Y-110984482D01*
X153270498Y-111104180D01*
X153329463Y-111214494D01*
X153408815Y-111311185D01*
X153505506Y-111390537D01*
X153615820Y-111449502D01*
X153650427Y-111460000D01*
X153615820Y-111470498D01*
X153505506Y-111529463D01*
X153408815Y-111608815D01*
X153329463Y-111705506D01*
X153270498Y-111815820D01*
X153234188Y-111935518D01*
X153221928Y-112060000D01*
X153221928Y-112075000D01*
X153019646Y-112075000D01*
X152986087Y-111993980D01*
X152943252Y-111929873D01*
X153007086Y-111776943D01*
X153043743Y-111595243D01*
X153044248Y-111409883D01*
X153008581Y-111227987D01*
X152943528Y-111069714D01*
X152986087Y-111006020D01*
X153061205Y-110824668D01*
X153099500Y-110632147D01*
X153099500Y-110435853D01*
X153061205Y-110243332D01*
X152986087Y-110061980D01*
X152877032Y-109898768D01*
X152738232Y-109759968D01*
X152575020Y-109650913D01*
X152393668Y-109575795D01*
X152220509Y-109541351D01*
X151839740Y-109160582D01*
X151913250Y-109167822D01*
X152962270Y-109167822D01*
X153086752Y-109155562D01*
X153206450Y-109119252D01*
X153245445Y-109098408D01*
X153234188Y-109135518D01*
X153221928Y-109260000D01*
X153225000Y-109774250D01*
X153383750Y-109933000D01*
X154633000Y-109933000D01*
X154633000Y-108783750D01*
X154887000Y-108783750D01*
X154887000Y-109933000D01*
X156136250Y-109933000D01*
X156295000Y-109774250D01*
X156298072Y-109260000D01*
X156285812Y-109135518D01*
X156249502Y-109015820D01*
X156190537Y-108905506D01*
X156111185Y-108808815D01*
X156014494Y-108729463D01*
X155904180Y-108670498D01*
X155784482Y-108634188D01*
X155660000Y-108621928D01*
X155045750Y-108625000D01*
X154887000Y-108783750D01*
X154633000Y-108783750D01*
X154474250Y-108625000D01*
X153860000Y-108621928D01*
X153735518Y-108634188D01*
X153615820Y-108670498D01*
X153576825Y-108691342D01*
X153588082Y-108654232D01*
X153600342Y-108529750D01*
X153600342Y-107450250D01*
X153588082Y-107325768D01*
X153551772Y-107206070D01*
X153492807Y-107095756D01*
X153460360Y-107056219D01*
X153494807Y-107014244D01*
X153553772Y-106903930D01*
X153590082Y-106784232D01*
X153602342Y-106659750D01*
X153602342Y-105580250D01*
X153590082Y-105455768D01*
X153553772Y-105336070D01*
X153494807Y-105225756D01*
X153415455Y-105129065D01*
X153318764Y-105049713D01*
X153208450Y-104990748D01*
X153088752Y-104954438D01*
X152964270Y-104942178D01*
X151915250Y-104942178D01*
X151790768Y-104954438D01*
X151671070Y-104990748D01*
X151566000Y-105046910D01*
X151460930Y-104990748D01*
X151341232Y-104954438D01*
X151216750Y-104942178D01*
X150610335Y-104942178D01*
X150432247Y-104764090D01*
X150407664Y-104734136D01*
X150378255Y-104710000D01*
X156336026Y-104710000D01*
X156139017Y-104841637D01*
G36*
X142047000Y-113833000D02*
G01*
X142067000Y-113833000D01*
X142067000Y-114087000D01*
X142047000Y-114087000D01*
X142047000Y-115357000D01*
X142809000Y-115357000D01*
X143079101Y-115305381D01*
X143333942Y-115202059D01*
X143563729Y-115051006D01*
X143759632Y-114858026D01*
X143914122Y-114630535D01*
X144021262Y-114377276D01*
X144036220Y-114303070D01*
X143913721Y-114087002D01*
X144079000Y-114087002D01*
X144079000Y-113989157D01*
X144446842Y-114357000D01*
X144437658Y-114450250D01*
X144440730Y-114704250D01*
X144599480Y-114863000D01*
X145133997Y-114863000D01*
X145136113Y-114863642D01*
X145211026Y-114871020D01*
X145251439Y-114875000D01*
X145251444Y-114875000D01*
X145290000Y-114878797D01*
X145328555Y-114875000D01*
X145747240Y-114875000D01*
X145747240Y-115117000D01*
X145727240Y-115117000D01*
X145727240Y-116006000D01*
X145885990Y-116164750D01*
X146124750Y-116167822D01*
X146249232Y-116155562D01*
X146368930Y-116119252D01*
X146474000Y-116063090D01*
X146562801Y-116110556D01*
X146562801Y-116469237D01*
X146559003Y-116507800D01*
X146574159Y-116661686D01*
X146619046Y-116809659D01*
X146619047Y-116809660D01*
X146691939Y-116946033D01*
X146725034Y-116986359D01*
X146765455Y-117035612D01*
X146765459Y-117035616D01*
X146790037Y-117065564D01*
X146819985Y-117090142D01*
X148019843Y-118290000D01*
X140710000Y-118290000D01*
X140710000Y-115529750D01*
X144437658Y-115529750D01*
X144449918Y-115654232D01*
X144486228Y-115773930D01*
X144545193Y-115884244D01*
X144624545Y-115980935D01*
X144721236Y-116060287D01*
X144831550Y-116119252D01*
X144951248Y-116155562D01*
X145075730Y-116167822D01*
X145314490Y-116164750D01*
X145473240Y-116006000D01*
X145473240Y-115117000D01*
X144599480Y-115117000D01*
X144440730Y-115275750D01*
X144437658Y-115529750D01*
X140710000Y-115529750D01*
X140710000Y-115284745D01*
X140760899Y-115305381D01*
X141031000Y-115357000D01*
X141793000Y-115357000D01*
X141793000Y-114087000D01*
X141773000Y-114087000D01*
X141773000Y-113833000D01*
X141793000Y-113833000D01*
X141793000Y-113813000D01*
X142047000Y-113813000D01*
X142047000Y-113833000D01*
X142047000Y-113833000D01*
G37*
X142047000Y-113833000D02*
X142067000Y-113833000D01*
X142067000Y-114087000D01*
X142047000Y-114087000D01*
X142047000Y-115357000D01*
X142809000Y-115357000D01*
X143079101Y-115305381D01*
X143333942Y-115202059D01*
X143563729Y-115051006D01*
X143759632Y-114858026D01*
X143914122Y-114630535D01*
X144021262Y-114377276D01*
X144036220Y-114303070D01*
X143913721Y-114087002D01*
X144079000Y-114087002D01*
X144079000Y-113989157D01*
X144446842Y-114357000D01*
X144437658Y-114450250D01*
X144440730Y-114704250D01*
X144599480Y-114863000D01*
X145133997Y-114863000D01*
X145136113Y-114863642D01*
X145211026Y-114871020D01*
X145251439Y-114875000D01*
X145251444Y-114875000D01*
X145290000Y-114878797D01*
X145328555Y-114875000D01*
X145747240Y-114875000D01*
X145747240Y-115117000D01*
X145727240Y-115117000D01*
X145727240Y-116006000D01*
X145885990Y-116164750D01*
X146124750Y-116167822D01*
X146249232Y-116155562D01*
X146368930Y-116119252D01*
X146474000Y-116063090D01*
X146562801Y-116110556D01*
X146562801Y-116469237D01*
X146559003Y-116507800D01*
X146574159Y-116661686D01*
X146619046Y-116809659D01*
X146619047Y-116809660D01*
X146691939Y-116946033D01*
X146725034Y-116986359D01*
X146765455Y-117035612D01*
X146765459Y-117035616D01*
X146790037Y-117065564D01*
X146819985Y-117090142D01*
X148019843Y-118290000D01*
X140710000Y-118290000D01*
X140710000Y-115529750D01*
X144437658Y-115529750D01*
X144449918Y-115654232D01*
X144486228Y-115773930D01*
X144545193Y-115884244D01*
X144624545Y-115980935D01*
X144721236Y-116060287D01*
X144831550Y-116119252D01*
X144951248Y-116155562D01*
X145075730Y-116167822D01*
X145314490Y-116164750D01*
X145473240Y-116006000D01*
X145473240Y-115117000D01*
X144599480Y-115117000D01*
X144440730Y-115275750D01*
X144437658Y-115529750D01*
X140710000Y-115529750D01*
X140710000Y-115284745D01*
X140760899Y-115305381D01*
X141031000Y-115357000D01*
X141793000Y-115357000D01*
X141793000Y-114087000D01*
X141773000Y-114087000D01*
X141773000Y-113833000D01*
X141793000Y-113833000D01*
X141793000Y-113813000D01*
X142047000Y-113813000D01*
X142047000Y-113833000D01*
G36*
X148512236Y-114570644D02*
G01*
X148542184Y-114595222D01*
X148542187Y-114595225D01*
X148557739Y-114607988D01*
X148631767Y-114668742D01*
X148742896Y-114728141D01*
X148768140Y-114741634D01*
X148916112Y-114786521D01*
X148930490Y-114787937D01*
X149031439Y-114797880D01*
X149031446Y-114797880D01*
X149069999Y-114801677D01*
X149108552Y-114797880D01*
X149379203Y-114797880D01*
X149543658Y-114962335D01*
X149543658Y-115569750D01*
X149555918Y-115694232D01*
X149592228Y-115813930D01*
X149651193Y-115924244D01*
X149656124Y-115930252D01*
X149635193Y-115955756D01*
X149576228Y-116066070D01*
X149539918Y-116185768D01*
X149527658Y-116310250D01*
X149527658Y-117389750D01*
X149539918Y-117514232D01*
X149572806Y-117622649D01*
X148132800Y-116182643D01*
X148132800Y-116110513D01*
X148226764Y-116060287D01*
X148323455Y-115980935D01*
X148402807Y-115884244D01*
X148461772Y-115773930D01*
X148498082Y-115654232D01*
X148510342Y-115529750D01*
X148510342Y-114568336D01*
X148512236Y-114570644D01*
X148512236Y-114570644D01*
G37*
X148512236Y-114570644D02*
X148542184Y-114595222D01*
X148542187Y-114595225D01*
X148557739Y-114607988D01*
X148631767Y-114668742D01*
X148742896Y-114728141D01*
X148768140Y-114741634D01*
X148916112Y-114786521D01*
X148930490Y-114787937D01*
X149031439Y-114797880D01*
X149031446Y-114797880D01*
X149069999Y-114801677D01*
X149108552Y-114797880D01*
X149379203Y-114797880D01*
X149543658Y-114962335D01*
X149543658Y-115569750D01*
X149555918Y-115694232D01*
X149592228Y-115813930D01*
X149651193Y-115924244D01*
X149656124Y-115930252D01*
X149635193Y-115955756D01*
X149576228Y-116066070D01*
X149539918Y-116185768D01*
X149527658Y-116310250D01*
X149527658Y-117389750D01*
X149539918Y-117514232D01*
X149572806Y-117622649D01*
X148132800Y-116182643D01*
X148132800Y-116110513D01*
X148226764Y-116060287D01*
X148323455Y-115980935D01*
X148402807Y-115884244D01*
X148461772Y-115773930D01*
X148498082Y-115654232D01*
X148510342Y-115529750D01*
X148510342Y-114568336D01*
X148512236Y-114570644D01*
G36*
X152564760Y-116723000D02*
G01*
X152584760Y-116723000D01*
X152584760Y-116977000D01*
X152564760Y-116977000D01*
X152564760Y-116997000D01*
X152310760Y-116997000D01*
X152310760Y-116977000D01*
X152290760Y-116977000D01*
X152290760Y-116723000D01*
X152310760Y-116723000D01*
X152310760Y-116703000D01*
X152564760Y-116703000D01*
X152564760Y-116723000D01*
X152564760Y-116723000D01*
G37*
X152564760Y-116723000D02*
X152584760Y-116723000D01*
X152584760Y-116977000D01*
X152564760Y-116977000D01*
X152564760Y-116997000D01*
X152310760Y-116997000D01*
X152310760Y-116977000D01*
X152290760Y-116977000D01*
X152290760Y-116723000D01*
X152310760Y-116723000D01*
X152310760Y-116703000D01*
X152564760Y-116703000D01*
X152564760Y-116723000D01*
G36*
X149635193Y-108884244D02*
G01*
X149714545Y-108980935D01*
X149811236Y-109060287D01*
X149902593Y-109109119D01*
X149901403Y-109121200D01*
X149916559Y-109275086D01*
X149961446Y-109423059D01*
X149969306Y-109437764D01*
X150034339Y-109559433D01*
X150070866Y-109603941D01*
X150107855Y-109649012D01*
X150107859Y-109649016D01*
X150132437Y-109678964D01*
X150162385Y-109703542D01*
X151110351Y-110651509D01*
X151144795Y-110824668D01*
X151219913Y-111006020D01*
X151262748Y-111070127D01*
X151212961Y-111189404D01*
X151211367Y-111179554D01*
X151125575Y-110949385D01*
X151083154Y-110870024D01*
X150858349Y-110821256D01*
X150179605Y-111500000D01*
X150858349Y-112178744D01*
X151083154Y-112129976D01*
X151185244Y-111906558D01*
X151209891Y-111802357D01*
X151262472Y-111930286D01*
X151219913Y-111993980D01*
X151144795Y-112175332D01*
X151106500Y-112367853D01*
X151106500Y-112564147D01*
X151144795Y-112756668D01*
X151219913Y-112938020D01*
X151328968Y-113101232D01*
X151467768Y-113240032D01*
X151630980Y-113349087D01*
X151668801Y-113364753D01*
X151668800Y-113909445D01*
X151580000Y-113956910D01*
X151474930Y-113900748D01*
X151355232Y-113864438D01*
X151230750Y-113852178D01*
X150653815Y-113852178D01*
X150286707Y-113485070D01*
X150262124Y-113455116D01*
X150142593Y-113357018D01*
X150006220Y-113284126D01*
X149858247Y-113239239D01*
X149803075Y-113233805D01*
X149807249Y-113135854D01*
X149366000Y-112694605D01*
X149351858Y-112708748D01*
X149185000Y-112541890D01*
X149185000Y-112516395D01*
X149186395Y-112515000D01*
X149185000Y-112513605D01*
X149185000Y-112488110D01*
X149200961Y-112472149D01*
X149204210Y-112475398D01*
X149321257Y-112358351D01*
X149370024Y-112583154D01*
X149593442Y-112685244D01*
X149753773Y-112723168D01*
X149986854Y-112956249D01*
X150178171Y-112948097D01*
X150247059Y-112781328D01*
X150258934Y-112721321D01*
X150320446Y-112711367D01*
X150550615Y-112625575D01*
X150629976Y-112583154D01*
X150678744Y-112358349D01*
X150000000Y-111679605D01*
X149985858Y-111693748D01*
X149806253Y-111514143D01*
X149820395Y-111500000D01*
X149670735Y-111350340D01*
X149799097Y-111297171D01*
X149806358Y-111126753D01*
X150000000Y-111320395D01*
X150678744Y-110641651D01*
X150629976Y-110416846D01*
X150406558Y-110314756D01*
X150259118Y-110279881D01*
X150246537Y-110216954D01*
X150178171Y-110051903D01*
X149986854Y-110043751D01*
X149754023Y-110276582D01*
X149679554Y-110288633D01*
X149449385Y-110374425D01*
X149370024Y-110416846D01*
X149321256Y-110641651D01*
X149355105Y-110675500D01*
X149351858Y-110678748D01*
X149172253Y-110499143D01*
X149186395Y-110485000D01*
X148745146Y-110043751D01*
X148553829Y-110051903D01*
X148541054Y-110082830D01*
X148542342Y-110069750D01*
X148542342Y-109864146D01*
X148924751Y-109864146D01*
X149366000Y-110305395D01*
X149807249Y-109864146D01*
X149799097Y-109672829D01*
X149632328Y-109603941D01*
X149455325Y-109568913D01*
X149274889Y-109569089D01*
X149097954Y-109604463D01*
X148932903Y-109672829D01*
X148924751Y-109864146D01*
X148542342Y-109864146D01*
X148542342Y-108990250D01*
X148531003Y-108875122D01*
X149499550Y-108875122D01*
X149623777Y-108862887D01*
X149635193Y-108884244D01*
X149635193Y-108884244D01*
G37*
X149635193Y-108884244D02*
X149714545Y-108980935D01*
X149811236Y-109060287D01*
X149902593Y-109109119D01*
X149901403Y-109121200D01*
X149916559Y-109275086D01*
X149961446Y-109423059D01*
X149969306Y-109437764D01*
X150034339Y-109559433D01*
X150070866Y-109603941D01*
X150107855Y-109649012D01*
X150107859Y-109649016D01*
X150132437Y-109678964D01*
X150162385Y-109703542D01*
X151110351Y-110651509D01*
X151144795Y-110824668D01*
X151219913Y-111006020D01*
X151262748Y-111070127D01*
X151212961Y-111189404D01*
X151211367Y-111179554D01*
X151125575Y-110949385D01*
X151083154Y-110870024D01*
X150858349Y-110821256D01*
X150179605Y-111500000D01*
X150858349Y-112178744D01*
X151083154Y-112129976D01*
X151185244Y-111906558D01*
X151209891Y-111802357D01*
X151262472Y-111930286D01*
X151219913Y-111993980D01*
X151144795Y-112175332D01*
X151106500Y-112367853D01*
X151106500Y-112564147D01*
X151144795Y-112756668D01*
X151219913Y-112938020D01*
X151328968Y-113101232D01*
X151467768Y-113240032D01*
X151630980Y-113349087D01*
X151668801Y-113364753D01*
X151668800Y-113909445D01*
X151580000Y-113956910D01*
X151474930Y-113900748D01*
X151355232Y-113864438D01*
X151230750Y-113852178D01*
X150653815Y-113852178D01*
X150286707Y-113485070D01*
X150262124Y-113455116D01*
X150142593Y-113357018D01*
X150006220Y-113284126D01*
X149858247Y-113239239D01*
X149803075Y-113233805D01*
X149807249Y-113135854D01*
X149366000Y-112694605D01*
X149351858Y-112708748D01*
X149185000Y-112541890D01*
X149185000Y-112516395D01*
X149186395Y-112515000D01*
X149185000Y-112513605D01*
X149185000Y-112488110D01*
X149200961Y-112472149D01*
X149204210Y-112475398D01*
X149321257Y-112358351D01*
X149370024Y-112583154D01*
X149593442Y-112685244D01*
X149753773Y-112723168D01*
X149986854Y-112956249D01*
X150178171Y-112948097D01*
X150247059Y-112781328D01*
X150258934Y-112721321D01*
X150320446Y-112711367D01*
X150550615Y-112625575D01*
X150629976Y-112583154D01*
X150678744Y-112358349D01*
X150000000Y-111679605D01*
X149985858Y-111693748D01*
X149806253Y-111514143D01*
X149820395Y-111500000D01*
X149670735Y-111350340D01*
X149799097Y-111297171D01*
X149806358Y-111126753D01*
X150000000Y-111320395D01*
X150678744Y-110641651D01*
X150629976Y-110416846D01*
X150406558Y-110314756D01*
X150259118Y-110279881D01*
X150246537Y-110216954D01*
X150178171Y-110051903D01*
X149986854Y-110043751D01*
X149754023Y-110276582D01*
X149679554Y-110288633D01*
X149449385Y-110374425D01*
X149370024Y-110416846D01*
X149321256Y-110641651D01*
X149355105Y-110675500D01*
X149351858Y-110678748D01*
X149172253Y-110499143D01*
X149186395Y-110485000D01*
X148745146Y-110043751D01*
X148553829Y-110051903D01*
X148541054Y-110082830D01*
X148542342Y-110069750D01*
X148542342Y-109864146D01*
X148924751Y-109864146D01*
X149366000Y-110305395D01*
X149807249Y-109864146D01*
X149799097Y-109672829D01*
X149632328Y-109603941D01*
X149455325Y-109568913D01*
X149274889Y-109569089D01*
X149097954Y-109604463D01*
X148932903Y-109672829D01*
X148924751Y-109864146D01*
X148542342Y-109864146D01*
X148542342Y-108990250D01*
X148531003Y-108875122D01*
X149499550Y-108875122D01*
X149623777Y-108862887D01*
X149635193Y-108884244D01*
G36*
X143922841Y-113832998D02*
G01*
X143913721Y-113832998D01*
X143917021Y-113827178D01*
X143922841Y-113832998D01*
X143922841Y-113832998D01*
G37*
X143922841Y-113832998D02*
X143913721Y-113832998D01*
X143917021Y-113827178D01*
X143922841Y-113832998D01*
G36*
X146663782Y-112252032D02*
G01*
X146674167Y-112262417D01*
X146627002Y-112287628D01*
X146627002Y-112232372D01*
X146663782Y-112252032D01*
X146663782Y-112252032D01*
G37*
X146663782Y-112252032D02*
X146674167Y-112262417D01*
X146627002Y-112287628D01*
X146627002Y-112232372D01*
X146663782Y-112252032D01*
G36*
X154972678Y-111421928D02*
G01*
X154887002Y-111421928D01*
X154887002Y-111336252D01*
X154972678Y-111421928D01*
X154972678Y-111421928D01*
G37*
X154972678Y-111421928D02*
X154887002Y-111421928D01*
X154887002Y-111336252D01*
X154972678Y-111421928D01*
G36*
X154632998Y-111421928D02*
G01*
X154547322Y-111421928D01*
X154632998Y-111336252D01*
X154632998Y-111421928D01*
X154632998Y-111421928D01*
G37*
X154632998Y-111421928D02*
X154547322Y-111421928D01*
X154632998Y-111336252D01*
X154632998Y-111421928D01*
G36*
X145759240Y-109403000D02*
G01*
X145779240Y-109403000D01*
X145779240Y-109657000D01*
X145759240Y-109657000D01*
X145759240Y-109677000D01*
X145505240Y-109677000D01*
X145505240Y-109657000D01*
X145485240Y-109657000D01*
X145485240Y-109403000D01*
X145505240Y-109403000D01*
X145505240Y-109383000D01*
X145759240Y-109383000D01*
X145759240Y-109403000D01*
X145759240Y-109403000D01*
G37*
X145759240Y-109403000D02*
X145779240Y-109403000D01*
X145779240Y-109657000D01*
X145759240Y-109657000D01*
X145759240Y-109677000D01*
X145505240Y-109677000D01*
X145505240Y-109657000D01*
X145485240Y-109657000D01*
X145485240Y-109403000D01*
X145505240Y-109403000D01*
X145505240Y-109383000D01*
X145759240Y-109383000D01*
X145759240Y-109403000D01*
G36*
X146905738Y-108115895D02*
G01*
X146930316Y-108145844D01*
X146960264Y-108170422D01*
X146960267Y-108170425D01*
X146972351Y-108180342D01*
X147049847Y-108243942D01*
X147186220Y-108316834D01*
X147287507Y-108347559D01*
X147302734Y-108352178D01*
X146855250Y-108352178D01*
X146730768Y-108364438D01*
X146611070Y-108400748D01*
X146506000Y-108456910D01*
X146400930Y-108400748D01*
X146281232Y-108364438D01*
X146192079Y-108355658D01*
X146203600Y-108297739D01*
X146203600Y-108093861D01*
X146185028Y-108000491D01*
X146231517Y-107943844D01*
X146290482Y-107833530D01*
X146326792Y-107713832D01*
X146339052Y-107589350D01*
X146339052Y-107549209D01*
X146905738Y-108115895D01*
X146905738Y-108115895D01*
G37*
X146905738Y-108115895D02*
X146930316Y-108145844D01*
X146960264Y-108170422D01*
X146960267Y-108170425D01*
X146972351Y-108180342D01*
X147049847Y-108243942D01*
X147186220Y-108316834D01*
X147287507Y-108347559D01*
X147302734Y-108352178D01*
X146855250Y-108352178D01*
X146730768Y-108364438D01*
X146611070Y-108400748D01*
X146506000Y-108456910D01*
X146400930Y-108400748D01*
X146281232Y-108364438D01*
X146192079Y-108355658D01*
X146203600Y-108297739D01*
X146203600Y-108093861D01*
X146185028Y-108000491D01*
X146231517Y-107943844D01*
X146290482Y-107833530D01*
X146326792Y-107713832D01*
X146339052Y-107589350D01*
X146339052Y-107549209D01*
X146905738Y-108115895D01*
M02*
